<?xml version="1.0" encoding="utf-8"?>
<!-- Generator: Adobe Illustrator 25.2.3, SVG Export Plug-In . SVG Version: 6.00 Build 0)  -->
<svg version="1.1" id="Camada_1" xmlns="http://www.w3.org/2000/svg" xmlns:xlink="http://www.w3.org/1999/xlink" x="0px" y="0px"
	 viewBox="0 0 319.02 394.98" style="enable-background:new 0 0 319.02 394.98;" xml:space="preserve">
<polygon points="136.72,167.11 136.72,182.3 121.53,182.3 121.53,212.68 106.34,212.68 106.34,182.3 91.15,182.3 91.15,167.11 "/>
<polygon points="227.87,167.11 227.87,182.3 212.68,182.3 212.68,212.68 197.49,212.68 197.49,182.3 182.29,182.3 182.29,167.11 "/>
<rect x="151.91" y="197.49" width="15.19" height="30.39"/>
<rect x="136.72" y="243.07" width="45.57" height="15.19"/>
<path d="M303.83,319.02v-15.19h-15.2v-15.19h-30.38v-15.19h15.19v-30.38h30.39v-75.96h-15.2V75.96h-15.19V60.77h-30.38V45.58h-15.19
	V30.39h-15.19v-15.2h-15.19V0h-60.77v15.19H75.95v15.2H60.76v15.19H45.57v30.38H30.38v91.15H15.19v60.77h15.19V182.3h30.38v15.19
	H45.57v15.19h15.19v15.2H30.38v15.19h15.19v15.19h15.19v30.38H30.38v15.19H15.19v15.19H0v60.77h15.19v15.19h288.64v-15.19h15.19
	v-60.77H303.83z M258.25,212.68h15.19v-15.19h-15.19V182.3h30.38v45.58h-15.19v-0.01h-15.19V212.68z M212.68,319.02h-15.19v15.2
	h-75.96v-15.2h-15.19v-15.19h15.19v15.19h75.96v-15.19h15.19V319.02z M243.06,258.26h-15.19v15.19h-30.38v15.19h-75.96v-15.19H91.15
	v-15.19h-15.2V121.54h15.2v-15.2h60.76v30.39h30.38v15.19h60.77V258.26z"/>
</svg>
